Coordinates
version=1
nRows=13
nColumns=34
inDegrees=yes

Units are S.I. units (second, meters, Newtons, ...)
If the header above contains a line with 'inDegrees', this indicates whether rotational values are in degrees (yes) or radians (no).

endheader
time	pelvis_tilt	pelvis_list	pelvis_rotation	pelvis_tx	pelvis_ty	pelvis_tz	hip_flexion_r	hip_adduction_r	hip_rotation_r	knee_angle_r	ankle_angle_r	subtalar_angle_r	mtp_angle_r	hip_flexion_l	hip_adduction_l	hip_rotation_l	knee_angle_l	ankle_angle_l	subtalar_angle_l	mtp_angle_l	lumbar_extension	lumbar_bending	lumbar_rotation	arm_flex_r	arm_add_r	arm_rot_r	elbow_flex_r	pro_sup_r	arm_flex_l	arm_add_l	arm_rot_l	elbow_flex_l	pro_sup_l
      2.70000000	     -5.90070923	      2.16088425	      0.77171646	     -0.64310953	      0.75905735	     -0.18418997	     52.87676545	     -9.95662237	     -2.41071830	     79.24975395	     34.92956616	     -8.95614583	      0.00000000	     51.17060073	     -8.86788887	    -12.60044942	     76.22247866	     35.47607292	      3.48550292	      0.00000000	    -53.55276958	     -0.04458549	     -2.14116187	     24.09892474	     -9.59830884	     -6.21429150	     35.49688718	     84.07118160	     16.96917110	    -14.99021314	      6.00621345	     41.00675650	     94.86464574
      2.71666670	     -5.38319127	      2.22846617	      0.54471549	     -0.64015171	      0.75675956	     -0.18309104	     52.65878011	     -9.91471920	     -2.15064795	     79.93979524	     34.94018846	     -9.20021680	      0.00000000	     50.73650303	     -8.92339182	    -12.48150704	     76.81097155	     36.10272676	      3.57327051	      0.00000000	    -54.68994013	     -0.18514018	     -2.06733625	     24.53395084	     -9.70121670	     -6.31525032	     35.54055777	     84.27605940	     17.52049567	    -15.10705982	      6.13896615	     40.79633335	     95.05744542
      2.73333330	     -5.26009758	      2.31938594	      0.36108893	     -0.64003067	      0.75416991	     -0.18425420	     52.79419411	     -9.91242833	     -1.83433023	     80.51584999	     35.03506540	     -9.32695348	      0.00000000	     50.76676130	     -8.86432819	    -12.45010275	     77.32057475	     36.74570649	      3.65416019	      0.00000000	    -55.39017271	     -0.28235323	     -2.03068915	     24.87564417	     -9.85107908	     -6.36511735	     35.60486501	     84.36905789	     17.89342878	    -15.22618769	      6.13347625	     40.66067122	     95.12783435
      2.75000000	     -4.95811970	      2.48917439	      0.07043128	     -0.64172889	      0.75572550	     -0.18339337	     52.69925771	     -9.81987334	     -1.47195535	     80.81116895	     34.87071477	     -9.44902771	      0.00000000	     50.36099230	     -8.82966891	    -12.67885793	     77.42718471	     37.25987280	      4.05831141	      0.00000000	    -56.00478573	     -0.63587443	     -1.99270449	     24.98436413	     -9.92818052	     -6.38309123	     35.68753595	     84.62332145	     18.33490897	    -15.21974292	      6.17561698	     40.27076902	     95.30064368
      2.76666670	     -5.02032010	      2.49784194	      0.06435182	     -0.63988014	      0.75528756	     -0.18280166	     52.69842097	     -9.80034289	     -1.47475564	     80.82174591	     34.87115304	     -9.44957285	      0.00000000	     50.31626239	     -8.81254389	    -12.66445605	     77.45402178	     37.26316409	      4.05987440	      0.00000000	    -56.02411685	     -0.63173506	     -1.99378924	     24.98430029	     -9.93238983	     -6.38393001	     35.68656135	     84.62519210	     18.34279146	    -15.22549877	      6.17384206	     40.26716042	     95.30167963
      2.78333330	     -4.82791360	      2.54887796	     -0.16761011	     -0.63813412	      0.75810273	     -0.18289107	     52.16293188	     -9.51407035	     -1.20732879	     80.40446859	     34.90194138	     -9.61800658	      0.00000000	     49.72123999	     -8.87776217	    -12.82970329	     77.18516055	     37.63554714	      4.35224490	      0.00000000	    -56.32378773	     -0.88984705	     -1.87481440	     24.77197953	    -10.01285873	     -6.36537101	     35.79223749	     84.90016123	     18.54296435	    -15.19160976	      6.05243902	     39.66644331	     95.43861893
      2.80000000	     -4.99616739	      2.56047427	     -0.15426217	     -0.63933219	      0.76065262	     -0.18332780	     51.92803288	     -9.40271762	     -1.23425288	     79.63320296	     34.95065202	     -9.60748296	      0.00000000	     49.62050489	     -8.82461450	    -12.96372305	     76.67021917	     37.51317088	      4.38335301	      0.00000000	    -56.02061806	     -0.95111588	     -1.92209326	     24.43100732	    -10.01688077	     -6.36474895	     35.75987452	     84.93329353	     18.36347165	    -15.20376745	      6.04478193	     39.60040125	     95.45571630
      2.81666670	     -4.90520784	      2.59624444	     -0.22838344	     -0.63805526	      0.76460085	     -0.18322443	     51.28679746	     -9.24081433	     -1.12986261	     78.76851047	     34.91698582	     -9.73567310	      0.00000000	     48.99708244	     -8.80083307	    -13.12934127	     76.00538880	     36.71750883	      4.25631663	      0.00000000	    -55.75904683	     -1.09669134	     -1.80342033	     23.79170053	    -10.05472254	     -6.37202324	     36.04152581	     85.18465149	     18.19897352	    -15.07511170	      5.84150435	     39.38151175	     95.56342824
      2.83333330	     -4.98516508	      2.58776485	     -0.21713662	     -0.63776978	      0.76624965	     -0.18328389	     50.76727617	     -9.14728599	     -1.14301978	     77.82905755	     34.98399335	     -9.73907680	      0.00000000	     48.64459169	     -8.75300178	    -13.15039369	     75.48343620	     36.59588532	      4.22808742	      0.00000000	    -55.04340111	     -1.12176364	     -1.79819100	     23.12429161	     -9.98219567	     -6.35460423	     35.98250650	     85.24097392	     17.77871661	    -15.06460853	      5.81671895	     39.30539346	     95.58954524
      2.85000000	     -5.07184336	      2.42872935	     -0.21028542	     -0.63670896	      0.77041275	     -0.18374835	     50.04309102	     -8.95771190	     -1.30768758	     76.66934740	     34.65181400	     -9.98884031	      0.00000000	     48.30080558	     -8.73944453	    -13.00044515	     74.74732912	     35.85746044	      3.96616200	      0.00000000	    -54.30045023	     -1.00297867	     -1.61075701	     22.29994909	    -10.11275753	     -6.37980342	     36.43239391	     85.59751127	     17.43550587	    -14.83100640	      5.42827472	     39.25708627	     95.73030512
      2.86666670	     -5.26408491	      2.41390720	     -0.20803027	     -0.63510281	      0.77879628	     -0.18339432	     49.27457978	     -8.81045821	     -1.36284227	     75.19628987	     34.32892214	     -9.88255586	      0.00000000	     47.61536875	     -8.51610465	    -13.05745857	     73.38649151	     35.49265920	      4.12596178	      0.00000000	    -53.16022337	     -1.06367971	     -1.60761436	     21.51028691	     -9.99556990	     -6.34896407	     36.38698900	     85.69779320	     16.85356001	    -14.75563641	      5.36124471	     39.17931519	     95.77505932
      2.88333330	     -5.48501104	      2.43633970	     -0.31348574	     -0.63521161	      0.78648915	     -0.18368956	     48.47704525	     -8.64692492	     -1.41304814	     73.43872898	     33.36196905	     -9.88343877	      0.00000000	     46.64965412	     -8.25007547	    -13.21497220	     71.39676401	     34.58070257	      4.14161139	      0.00000000	    -52.20260295	     -1.12871378	     -1.61717040	     20.99090032	    -10.01015076	     -6.30987086	     36.54489719	     85.92049061	     16.52723276	    -14.70200233	      5.10060926	     39.10845999	     95.86215445
      2.90000000	     -5.60280451	      2.32788140	     -0.23237472	     -0.63466028	      0.79247896	     -0.18300783	     47.37626257	     -8.40789181	     -1.64149240	     71.45904276	     32.81821956	    -10.11744880	      0.00000000	     45.88025045	     -8.05444159	    -13.16125823	     69.68474612	     33.52156187	      3.56640895	      0.00000000	    -51.10177617	     -1.00808422	     -1.64040811	     20.28522816	     -9.92564287	     -6.20533200	     36.79459634	     86.35434400	     16.06243802	    -14.58597256	      4.71012368	     39.09460692	     96.05650148
